<?xml version="1.0" encoding="UTF-8" standalone="no"?>
<svg
   xmlns:dc="http://purl.org/dc/elements/1.1/"
   xmlns:cc="http://creativecommons.org/ns#"
   xmlns:rdf="http://www.w3.org/1999/02/22-rdf-syntax-ns#"
   xmlns:svg="http://www.w3.org/2000/svg"
   xmlns="http://www.w3.org/2000/svg"
   xmlns:sodipodi="http://sodipodi.sourceforge.net/DTD/sodipodi-0.dtd"
   xmlns:inkscape="http://www.inkscape.org/namespaces/inkscape"
   inkscape:export-ydpi="576"
   inkscape:export-xdpi="576"
   inkscape:export-filename="C:\Users\RainBoyz\Desktop\Oktober 2\4 - Swimming Pool.png"
   width="64pt"
   height="64pt"
   viewBox="0 0 22.577778 22.577778"
   version="1.1"
   id="svg831"
   inkscape:version="1.0 (4035a4fb49, 2020-05-01)"
   sodipodi:docname="EXPORT 64px.svg">
  <defs
     id="defs825">
    <pattern
       id="EMFhbasepattern"
       patternUnits="userSpaceOnUse"
       width="6"
       height="6"
       x="0"
       y="0" />
    <pattern
       id="EMFhbasepattern-9"
       patternUnits="userSpaceOnUse"
       width="6"
       height="6"
       x="0"
       y="0" />
    <pattern
       id="EMFhbasepattern-0"
       patternUnits="userSpaceOnUse"
       width="6"
       height="6"
       x="0"
       y="0" />
    <pattern
       id="EMFhbasepattern-7"
       patternUnits="userSpaceOnUse"
       width="6"
       height="6"
       x="0"
       y="0" />
    <pattern
       id="EMFhbasepattern-2"
       patternUnits="userSpaceOnUse"
       width="6"
       height="6"
       x="0"
       y="0" />
    <pattern
       id="EMFhbasepattern-98"
       patternUnits="userSpaceOnUse"
       width="6"
       height="6"
       x="0"
       y="0" />
    <pattern
       id="EMFhbasepattern-6"
       patternUnits="userSpaceOnUse"
       width="6"
       height="6"
       x="0"
       y="0" />
    <pattern
       id="EMFhbasepattern-01"
       patternUnits="userSpaceOnUse"
       width="6"
       height="6"
       x="0"
       y="0" />
    <pattern
       id="EMFhbasepattern-07"
       patternUnits="userSpaceOnUse"
       width="6"
       height="6"
       x="0"
       y="0" />
    <pattern
       id="EMFhbasepattern-8"
       patternUnits="userSpaceOnUse"
       width="6"
       height="6"
       x="0"
       y="0" />
    <pattern
       id="EMFhbasepattern-4"
       patternUnits="userSpaceOnUse"
       width="6"
       height="6"
       x="0"
       y="0" />
    <pattern
       id="EMFhbasepattern-40"
       patternUnits="userSpaceOnUse"
       width="6"
       height="6"
       x="0"
       y="0" />
    <pattern
       id="EMFhbasepattern-08"
       patternUnits="userSpaceOnUse"
       width="6"
       height="6"
       x="0"
       y="0" />
    <pattern
       id="EMFhbasepattern-04"
       patternUnits="userSpaceOnUse"
       width="6"
       height="6"
       x="0"
       y="0" />
    <pattern
       id="EMFhbasepattern-014"
       patternUnits="userSpaceOnUse"
       width="6"
       height="6"
       x="0"
       y="0" />
    <pattern
       id="EMFhbasepattern-27"
       patternUnits="userSpaceOnUse"
       width="6"
       height="6"
       x="0"
       y="0" />
    <pattern
       id="EMFhbasepattern-09"
       patternUnits="userSpaceOnUse"
       width="6"
       height="6"
       x="0"
       y="0" />
    <pattern
       id="EMFhbasepattern-5"
       patternUnits="userSpaceOnUse"
       width="6"
       height="6"
       x="0"
       y="0" />
    <pattern
       id="EMFhbasepattern-018"
       patternUnits="userSpaceOnUse"
       width="6"
       height="6"
       x="0"
       y="0" />
  </defs>
  <sodipodi:namedview
     id="base"
     pagecolor="#ffffff"
     bordercolor="#666666"
     borderopacity="1.0"
     inkscape:pageopacity="0.0"
     inkscape:pageshadow="2"
     inkscape:zoom="2.175182"
     inkscape:cx="-37.939616"
     inkscape:cy="42.666667"
     inkscape:document-units="pt"
     inkscape:current-layer="layer1"
     showgrid="false"
     units="pt"
     inkscape:window-width="1366"
     inkscape:window-height="715"
     inkscape:window-x="-8"
     inkscape:window-y="-8"
     inkscape:window-maximized="1"
     inkscape:pagecheckerboard="true"
     inkscape:showpageshadow="false"
     inkscape:object-paths="true"
     inkscape:snap-intersection-paths="true"
     inkscape:snap-smooth-nodes="true"
     inkscape:snap-midpoints="true"
     showguides="true"
     inkscape:snap-bbox="true"
     inkscape:bbox-nodes="true"
     inkscape:snap-nodes="false"
     inkscape:snap-global="true"
     inkscape:document-rotation="0">
    <inkscape:grid
       type="xygrid"
       id="grid1378" />
    <sodipodi:guide
       position="0.97013831,21.607643"
       orientation="78.000048,0"
       id="guide1380"
       inkscape:locked="false" />
    <sodipodi:guide
       position="0.97013831,0.97013129"
       orientation="0,78.000005"
       id="guide1382"
       inkscape:locked="false" />
    <sodipodi:guide
       position="21.607639,0.97013129"
       orientation="-78.000048,0"
       id="guide1384"
       inkscape:locked="false" />
    <sodipodi:guide
       position="21.607639,21.607643"
       orientation="0,-78.000005"
       id="guide1386"
       inkscape:locked="false" />
  </sodipodi:namedview>
  <metadata
     id="metadata828">
    <rdf:RDF>
      <cc:Work
         rdf:about="">
        <dc:format>image/svg+xml</dc:format>
        <dc:type
           rdf:resource="http://purl.org/dc/dcmitype/StillImage" />
        <dc:title></dc:title>
      </cc:Work>
    </rdf:RDF>
  </metadata>
  <g
     inkscape:label="Icon"
     inkscape:groupmode="layer"
     id="layer1"
     transform="translate(0,-274.42223)">
    <g
       transform="matrix(1.2786862,0,0,1.2786862,-38.541827,-44.228537)"
       style="display:inline"
       id="g563">
      <path
         id="path638"
         d="m 34.263672,260.08594 c -0.298841,0.0117 -0.536224,0.13766 -0.728516,0.25976 -0.192291,0.12211 -0.35096,0.23892 -0.501953,0.29883 -0.150993,0.0599 -0.288545,0.0812 -0.519531,0.002 -0.180064,-0.0618 -0.376808,-0.0817 -0.554688,0.0195 -0.177879,0.1012 -0.265625,0.31309 -0.265625,0.51757 v 3.96875 c 0,0.43522 0.357757,0.79558 0.792969,0.79688 l 6.34961,0.0176 a 0.26460996,0.26460996 0 0 0 0.265624,-0.26368 l -0.0039,-4.78906 a 0.26460996,0.26460996 0 0 0 -0.189453,-0.25195 c -0.122904,-0.0362 -0.272196,-0.10594 -0.453125,-0.22656 -0.430744,-0.28716 -0.803657,-0.38269 -1.125,-0.33985 -0.321343,0.0428 -0.557422,0.20756 -0.755859,0.33985 -0.198438,0.13229 -0.358452,0.2306 -0.533203,0.2539 -0.174751,0.0233 -0.398713,-0.0119 -0.761719,-0.2539 -0.383523,-0.25568 -0.716784,-0.36127 -1.015625,-0.34961 z"
         style="color:#000000;font-style:normal;font-variant:normal;font-weight:normal;font-stretch:normal;font-size:medium;line-height:normal;font-family:sans-serif;font-variant-ligatures:normal;font-variant-position:normal;font-variant-caps:normal;font-variant-numeric:normal;font-variant-alternates:normal;font-variant-east-asian:normal;font-feature-settings:normal;font-variation-settings:normal;text-indent:0;text-align:start;text-decoration:none;text-decoration-line:none;text-decoration-style:solid;text-decoration-color:#000000;letter-spacing:normal;word-spacing:normal;text-transform:none;writing-mode:lr-tb;direction:ltr;text-orientation:mixed;dominant-baseline:auto;baseline-shift:baseline;text-anchor:start;white-space:normal;shape-padding:0;shape-margin:0;inline-size:0;clip-rule:nonzero;display:inline;overflow:visible;visibility:visible;isolation:auto;mix-blend-mode:normal;color-interpolation:sRGB;color-interpolation-filters:linearRGB;solid-color:#000000;solid-opacity:1;vector-effect:none;fill:#2276bc;fill-opacity:1;fill-rule:nonzero;stroke:none;stroke-width:0.529167;stroke-linecap:round;stroke-linejoin:round;stroke-miterlimit:4;stroke-dasharray:none;stroke-dashoffset:0;stroke-opacity:1;color-rendering:auto;image-rendering:auto;shape-rendering:auto;text-rendering:auto;enable-background:accumulate;stop-color:#000000" />
      <path
         id="path381"
         d="m 34.019531,251.86149 c -0.785409,0 -1.342134,0.54451 -1.342138,1.32992 4e-6,0.78541 0.556729,1.32991 1.342138,1.32991 0.78541,0 1.366591,-0.5445 1.366595,-1.32991 -4e-6,-0.78541 -0.581185,-1.32992 -1.366595,-1.32992 z"
         style="color:#000000;font-style:normal;font-variant:normal;font-weight:normal;font-stretch:normal;font-size:medium;line-height:normal;font-family:sans-serif;font-variant-ligatures:normal;font-variant-position:normal;font-variant-caps:normal;font-variant-numeric:normal;font-variant-alternates:normal;font-variant-east-asian:normal;font-feature-settings:normal;font-variation-settings:normal;text-indent:0;text-align:start;text-decoration:none;text-decoration-line:none;text-decoration-style:solid;text-decoration-color:#000000;letter-spacing:normal;word-spacing:normal;text-transform:none;writing-mode:lr-tb;direction:ltr;text-orientation:mixed;dominant-baseline:auto;baseline-shift:baseline;text-anchor:start;white-space:normal;shape-padding:0;shape-margin:0;inline-size:0;clip-rule:nonzero;display:inline;overflow:visible;visibility:visible;isolation:auto;mix-blend-mode:normal;color-interpolation:sRGB;color-interpolation-filters:linearRGB;solid-color:#000000;solid-opacity:1;vector-effect:none;fill:#febe40;fill-opacity:1;fill-rule:nonzero;stroke:none;stroke-width:0.529167;stroke-linecap:round;stroke-linejoin:round;stroke-miterlimit:4;stroke-dasharray:none;stroke-dashoffset:0;stroke-opacity:1;color-rendering:auto;image-rendering:auto;shape-rendering:auto;text-rendering:auto;enable-background:accumulate;stop-color:#000000"
         sodipodi:nodetypes="sssss" />
      <path
         id="path1496"
         d="m 38.986905,259.90625 c -0.145414,-5.7e-4 -0.264038,0.11631 -0.265625,0.26172 l -0.0293,5.34298 c -5.64e-4,0.14617 0.1175,0.26511 0.263672,0.26563 l 7.132849,0.0215 c 0.435255,10e-4 0.794921,-0.35575 0.794921,-0.79101 v -4.83713 c -5.16e-4,-0.14541 -0.118264,-0.26315 -0.263671,-0.26367 z"
         style="color:#000000;font-style:normal;font-variant:normal;font-weight:normal;font-stretch:normal;font-size:medium;line-height:normal;font-family:sans-serif;font-variant-ligatures:normal;font-variant-position:normal;font-variant-caps:normal;font-variant-numeric:normal;font-variant-alternates:normal;font-variant-east-asian:normal;font-feature-settings:normal;font-variation-settings:normal;text-indent:0;text-align:start;text-decoration:none;text-decoration-line:none;text-decoration-style:solid;text-decoration-color:#000000;letter-spacing:normal;word-spacing:normal;text-transform:none;writing-mode:lr-tb;direction:ltr;text-orientation:mixed;dominant-baseline:auto;baseline-shift:baseline;text-anchor:start;white-space:normal;shape-padding:0;shape-margin:0;inline-size:0;clip-rule:nonzero;display:inline;overflow:visible;visibility:visible;isolation:auto;mix-blend-mode:normal;color-interpolation:sRGB;color-interpolation-filters:linearRGB;solid-color:#000000;solid-opacity:1;vector-effect:none;fill:#a8c0d1;fill-opacity:1;fill-rule:nonzero;stroke:none;stroke-width:0.529167;stroke-linecap:round;stroke-linejoin:round;stroke-miterlimit:4;stroke-dasharray:none;stroke-dashoffset:0;stroke-opacity:1;color-rendering:auto;image-rendering:auto;shape-rendering:auto;text-rendering:auto;enable-background:accumulate;stop-color:#000000"
         sodipodi:nodetypes="cccccsccc" />
      <path
         sodipodi:nodetypes="ccccccscccc"
         d="m 38.83794,259.90613 c -0.145519,-5.6e-4 -0.264182,0.11649 -0.265616,0.262 l -0.0072,1.3255 h 6.009425 c 0.484342,0 0.876979,0.39264 0.876978,0.87698 v 3.49472 l 0.602493,0.002 c 0.435252,0.001 0.794784,-0.35591 0.794784,-0.79117 v -4.90603 c -2.96e-4,-0.14552 -0.118035,-0.26349 -0.263551,-0.26407 z"
         style="color:#000000;font-style:normal;font-variant:normal;font-weight:normal;font-stretch:normal;font-size:medium;line-height:normal;font-family:sans-serif;font-variant-ligatures:normal;font-variant-position:normal;font-variant-caps:normal;font-variant-numeric:normal;font-variant-alternates:normal;font-variant-east-asian:normal;font-feature-settings:normal;font-variation-settings:normal;text-indent:0;text-align:start;text-decoration:none;text-decoration-line:none;text-decoration-style:solid;text-decoration-color:#000000;letter-spacing:normal;word-spacing:normal;text-transform:none;writing-mode:lr-tb;direction:ltr;text-orientation:mixed;dominant-baseline:auto;baseline-shift:baseline;text-anchor:start;white-space:normal;shape-padding:0;shape-margin:0;inline-size:0;clip-rule:nonzero;display:inline;overflow:visible;visibility:visible;isolation:auto;mix-blend-mode:normal;color-interpolation:sRGB;color-interpolation-filters:linearRGB;solid-color:#000000;solid-opacity:1;vector-effect:none;fill:#9ab0bf;fill-opacity:1;fill-rule:nonzero;stroke:none;stroke-width:0.529167;stroke-linecap:round;stroke-linejoin:round;stroke-miterlimit:4;stroke-dasharray:none;stroke-dashoffset:0;stroke-opacity:1;color-rendering:auto;image-rendering:auto;shape-rendering:auto;text-rendering:auto;enable-background:accumulate;stop-color:#000000"
         id="path1579" />
      <path
         id="path548"
         transform="matrix(0.26458334,0,0,0.26458334,0,280.06666)"
         d="m 161.78906,-106.64157 c -6.04459,0 -10.96991,4.68164 -11,10.719695 v 0.002 c -0.0156,0.28276 0.0895,0.331295 0.28906,0.532197 0.39073,0.39173 1.02529,0.39173 1.41602,0 0.88209,-0.882066 1.6224,-0.975556 2.28906,-0.975556 0.66666,0 1.41479,0.09357 2.29688,0.975556 0.38821,0.38817 1.01676,0.390803 1.4082,0.0059 0.003,-0.002 0.005,-0.0039 0.008,-0.0059 0.003,-0.0039 0.007,-0.0078 0.01,-0.01172 0.007,-0.0058 0.0131,-0.01163 0.0195,-0.01758 0.7714,-0.74914 2.01661,-0.95242 3.28516,-0.946259 1.26854,0.0076 2.51296,0.217118 3.27148,0.975556 0.38036,0.376671 0.9899,0.387003 1.38281,0.02344 0.0244,-0.01908 0.0478,-0.03929 0.0703,-0.06055 0.87309,-0.860485 1.60377,-0.943208 2.26562,-0.938446 0.66185,0.0038 1.40554,0.09999 2.28125,0.975556 0.39006,0.387829 1.0201,0.387829 1.41016,0 0.15977,-0.160545 0.26031,-0.143004 0.28515,-0.368134 0.007,-0.04981 0.0104,-0.10008 0.01,-0.150391 -0.0204,-6.046264 -4.9474,-10.393964 -10.99805,-10.393964 z"
         style="color:#000000;font-style:normal;font-variant:normal;font-weight:normal;font-stretch:normal;font-size:medium;line-height:normal;font-family:sans-serif;font-variant-ligatures:normal;font-variant-position:normal;font-variant-caps:normal;font-variant-numeric:normal;font-variant-alternates:normal;font-variant-east-asian:normal;font-feature-settings:normal;font-variation-settings:normal;text-indent:0;text-align:start;text-decoration:none;text-decoration-line:none;text-decoration-style:solid;text-decoration-color:#000000;letter-spacing:normal;word-spacing:normal;text-transform:none;writing-mode:lr-tb;direction:ltr;text-orientation:mixed;dominant-baseline:auto;baseline-shift:baseline;text-anchor:start;white-space:normal;shape-padding:0;shape-margin:0;inline-size:0;clip-rule:nonzero;display:inline;overflow:visible;visibility:visible;isolation:auto;mix-blend-mode:normal;color-interpolation:sRGB;color-interpolation-filters:linearRGB;solid-color:#000000;solid-opacity:1;vector-effect:none;fill:#de1b4b;fill-opacity:1;fill-rule:nonzero;stroke:none;stroke-width:2;stroke-linecap:round;stroke-linejoin:round;stroke-miterlimit:4;stroke-dasharray:none;stroke-dashoffset:0;stroke-opacity:1;color-rendering:auto;image-rendering:auto;shape-rendering:auto;text-rendering:auto;enable-background:accumulate;stop-color:#000000"
         sodipodi:nodetypes="cscccssccccccccccccccc" />
      <path
         sodipodi:nodetypes="ccccccccccc"
         d="m 42.802557,251.87602 0.0041,2.62482 v 10e-4 c 0.0019,0 0.0038,-5.2e-4 0.0057,-5.2e-4 0.335634,0.002 0.664887,0.11766 0.865579,0.31833 0.185392,0.10282 0.251231,0.037 0.384478,-0.01 0.231005,-0.22767 0.424331,-0.30977 0.599445,-0.30851 0.175115,0.001 0.371883,0.0867 0.603581,0.31833 0.209528,0.19211 0.344058,-0.003 0.323207,-0.19741 -0.0054,-1.59974 -1.181052,-2.74626 -2.781953,-2.74626 z"
         style="fill:#b31e48;fill-opacity:1;stroke:none;stroke-width:0.264583px;stroke-linecap:butt;stroke-linejoin:miter;stroke-opacity:1"
         id="path1538" />
      <path
         id="path581"
         d="m 42.802734,251.86439 c -0.05637,4.8e-4 -0.107667,0.10128 -0.15625,0.0527 0,0 -0.237399,0.16551 -0.524203,0.63156 -0.286804,0.46605 -0.548142,1.07824 -0.548149,2.05467 -0.0016,0.23758 0.194692,0.35677 0.361415,0.1875 0.202187,-0.20219 0.532983,-0.26945 0.871094,-0.26945 0.33811,0 0.644475,0.0428 0.846637,0.24499 0.166865,0.1659 0.451037,0.0478 0.451172,-0.1875 -1.5e-5,-0.97643 -0.317309,-1.4475 -0.604114,-1.91355 -0.286805,-0.46605 -0.595703,-0.6278 -0.595703,-0.6278 -0.04674,-0.035 -0.04353,-0.17392 -0.101899,-0.17312 z"
         style="color:#000000;font-style:normal;font-variant:normal;font-weight:normal;font-stretch:normal;font-size:medium;line-height:normal;font-family:sans-serif;font-variant-ligatures:normal;font-variant-position:normal;font-variant-caps:normal;font-variant-numeric:normal;font-variant-alternates:normal;font-variant-east-asian:normal;font-feature-settings:normal;font-variation-settings:normal;text-indent:0;text-align:start;text-decoration:none;text-decoration-line:none;text-decoration-style:solid;text-decoration-color:#000000;letter-spacing:normal;word-spacing:normal;text-transform:none;writing-mode:lr-tb;direction:ltr;text-orientation:mixed;dominant-baseline:auto;baseline-shift:baseline;text-anchor:start;white-space:normal;shape-padding:0;shape-margin:0;inline-size:0;clip-rule:nonzero;display:inline;overflow:visible;visibility:visible;isolation:auto;mix-blend-mode:normal;color-interpolation:sRGB;color-interpolation-filters:linearRGB;solid-color:#000000;solid-opacity:1;vector-effect:none;fill:#f5f6e8;fill-opacity:1;fill-rule:nonzero;stroke:none;stroke-width:0.529167;stroke-linecap:round;stroke-linejoin:round;stroke-miterlimit:4;stroke-dasharray:none;stroke-dashoffset:0;stroke-opacity:1;color-rendering:auto;image-rendering:auto;shape-rendering:auto;text-rendering:auto;enable-background:accumulate;stop-color:#000000"
         sodipodi:nodetypes="ccsccsccscc" />
      <path
         sodipodi:nodetypes="sccccss"
         id="path1512"
         d="m 39.146484,258.8892 c -0.313481,0 -0.458052,0.17428 -0.458052,0.48775 l 0.0061,1.05664 h 8.265034 l 0.01834,-1.05664 c 0,-0.31347 -0.197644,-0.48775 -0.511125,-0.48775 z"
         style="color:#000000;font-style:normal;font-variant:normal;font-weight:normal;font-stretch:normal;font-size:medium;line-height:normal;font-family:sans-serif;font-variant-ligatures:normal;font-variant-position:normal;font-variant-caps:normal;font-variant-numeric:normal;font-variant-alternates:normal;font-variant-east-asian:normal;font-feature-settings:normal;font-variation-settings:normal;text-indent:0;text-align:start;text-decoration:none;text-decoration-line:none;text-decoration-style:solid;text-decoration-color:#000000;letter-spacing:normal;word-spacing:normal;text-transform:none;writing-mode:lr-tb;direction:ltr;text-orientation:mixed;dominant-baseline:auto;baseline-shift:baseline;text-anchor:start;white-space:normal;shape-padding:0;shape-margin:0;inline-size:0;clip-rule:nonzero;display:inline;overflow:visible;visibility:visible;isolation:auto;mix-blend-mode:normal;color-interpolation:sRGB;color-interpolation-filters:linearRGB;solid-color:#000000;solid-opacity:1;vector-effect:none;fill:#d0e2ee;fill-opacity:1;fill-rule:nonzero;stroke:none;stroke-width:0.529167;stroke-linecap:round;stroke-linejoin:round;stroke-miterlimit:4;stroke-dasharray:none;stroke-dashoffset:0;stroke-opacity:1;color-rendering:auto;image-rendering:auto;shape-rendering:auto;text-rendering:auto;enable-background:accumulate;stop-color:#000000" />
      <path
         sodipodi:nodetypes="ccccc"
         d="m 42.802557,251.88119 0.0041,2.68884 c 0.338111,0 0.571278,-0.0484 0.773441,0.15376 0.166894,0.16586 0.451041,0.0477 0.451136,-0.18758 -0.21545,-0.95176 -0.834815,-2.49003 -1.228677,-2.65502 z"
         style="fill:#e0e0d4;fill-opacity:1;stroke:none;stroke-width:0.264583px;stroke-linecap:butt;stroke-linejoin:miter;stroke-opacity:1"
         id="path1540" />
      <path
         sodipodi:nodetypes="ccccccsccc"
         d="m 39.14645,258.88232 c -0.29954,0 -0.487085,0.15917 -0.508852,0.45382 0.01371,-10e-4 0.02688,-0.004 0.04082,-0.004 h 6.953254 c 0.484988,0 0.878149,0.39316 0.878148,0.87815 v 0.22359 h 0.474141 l 0.01223,-1.05678 c 0,-0.31347 -0.215779,-0.54356 -0.52926,-0.54356 z"
         style="color:#000000;font-style:normal;font-variant:normal;font-weight:normal;font-stretch:normal;font-size:medium;line-height:normal;font-family:sans-serif;font-variant-ligatures:normal;font-variant-position:normal;font-variant-caps:normal;font-variant-numeric:normal;font-variant-alternates:normal;font-variant-east-asian:normal;font-feature-settings:normal;font-variation-settings:normal;text-indent:0;text-align:start;text-decoration:none;text-decoration-line:none;text-decoration-style:solid;text-decoration-color:#000000;letter-spacing:normal;word-spacing:normal;text-transform:none;writing-mode:lr-tb;direction:ltr;text-orientation:mixed;dominant-baseline:auto;baseline-shift:baseline;text-anchor:start;white-space:normal;shape-padding:0;shape-margin:0;inline-size:0;clip-rule:nonzero;display:inline;overflow:visible;visibility:visible;isolation:auto;mix-blend-mode:normal;color-interpolation:sRGB;color-interpolation-filters:linearRGB;solid-color:#000000;solid-opacity:1;vector-effect:none;fill:#becfd9;fill-opacity:1;fill-rule:nonzero;stroke:none;stroke-width:0.529167;stroke-linecap:round;stroke-linejoin:round;stroke-miterlimit:4;stroke-dasharray:none;stroke-dashoffset:0;stroke-opacity:1;color-rendering:auto;image-rendering:auto;shape-rendering:auto;text-rendering:auto;enable-background:accumulate;stop-color:#000000"
         id="path1548" />
      <path
         d="m 34.019628,251.8613 c -0.527899,0 -0.892281,0.19326 -1.139309,0.62203 0.209137,-0.12048 0.352661,-0.19069 0.610143,-0.19069 0.78541,0 1.427816,0.64241 1.427821,1.42782 -3e-6,0.25749 -0.07021,0.38878 -0.190685,0.59792 0.428768,-0.24702 0.634253,-0.59918 0.634256,-1.12708 -6e-6,-0.78541 -0.556815,-1.33 -1.342226,-1.33 z"
         style="color:#000000;font-style:normal;font-variant:normal;font-weight:normal;font-stretch:normal;font-size:medium;line-height:normal;font-family:sans-serif;font-variant-ligatures:normal;font-variant-position:normal;font-variant-caps:normal;font-variant-numeric:normal;font-variant-alternates:normal;font-variant-east-asian:normal;font-feature-settings:normal;font-variation-settings:normal;text-indent:0;text-align:start;text-decoration:none;text-decoration-line:none;text-decoration-style:solid;text-decoration-color:#000000;letter-spacing:normal;word-spacing:normal;text-transform:none;writing-mode:lr-tb;direction:ltr;text-orientation:mixed;dominant-baseline:auto;baseline-shift:baseline;text-anchor:start;white-space:normal;shape-padding:0;shape-margin:0;inline-size:0;clip-rule:nonzero;display:inline;overflow:visible;visibility:visible;isolation:auto;mix-blend-mode:normal;color-interpolation:sRGB;color-interpolation-filters:linearRGB;solid-color:#000000;solid-opacity:1;vector-effect:none;fill:#e5ab37;fill-opacity:1;fill-rule:nonzero;stroke:none;stroke-width:0.529167;stroke-linecap:round;stroke-linejoin:round;stroke-miterlimit:4;stroke-dasharray:none;stroke-dashoffset:0;stroke-opacity:1;color-rendering:auto;image-rendering:auto;shape-rendering:auto;text-rendering:auto;enable-background:accumulate;stop-color:#000000"
         id="path1574"
         sodipodi:nodetypes="scssccs" />
      <path
         sodipodi:nodetypes="sccsccsccccccccccccccccscscscccccccccscccccsssscscccsssscscsssccscsscccscccccccccccccccsccccccsssccscsccccscccccscscccccccccccccccccccccccccccccccsccsccssccsccscccccccsccssssccsccscsssssscsscsscsssccccscssccsccscccccsccsccscccssccsscsscccsssccccsscscscccscccscccccc"
         d="m 34.019628,250.07198 c -0.146325,-5.3e-4 -0.26533,0.11774 -0.265615,0.26407 v 0.84542 c -5.3e-4,0.14694 0.118681,0.26619 0.265615,0.26562 0.146127,-5.3e-4 0.264123,-0.11949 0.263551,-0.26562 v -0.84542 c -2.64e-4,-0.14552 -0.11803,-0.2635 -0.263551,-0.26407 z m -1.728576,1.13482 c -0.067,0.003 -0.130537,0.0304 -0.177766,0.078 -0.102613,0.1032 -0.102613,0.2699 0,0.3731 l 0.298689,0.29921 c 0.103203,0.10261 0.269901,0.10261 0.373104,0 0.102614,-0.10321 0.102614,-0.2699 0,-0.37311 l -0.29869,-0.2992 c -0.05153,-0.0519 -0.122238,-0.0801 -0.195337,-0.078 z m 3.439583,0 c -0.067,0.003 -0.130537,0.0304 -0.177765,0.078 l -0.299207,0.2992 c -0.102613,0.10321 -0.102613,0.2699 0,0.37311 0.103203,0.10261 0.269899,0.10261 0.373102,0 l 0.299207,-0.29921 c 0.102613,-0.1032 0.102613,-0.2699 0,-0.3731 -0.05153,-0.0519 -0.122238,-0.0801 -0.195337,-0.078 z m -1.711007,0.55655 c -0.785408,0 -1.427814,0.64241 -1.427819,1.42782 5e-6,0.78541 0.642411,1.42782 1.427819,1.42782 0.78541,0 1.427816,-0.64241 1.427821,-1.42782 -5e-6,-0.78541 -0.642411,-1.42782 -1.427821,-1.42782 z m 5.876652,2.87533 c -0.0039,0.10252 0.01106,0.19017 0.07648,0.25011 0.103381,0.10365 0.271275,0.10365 0.374656,0 0.226549,-0.22654 0.418819,-0.31331 0.590145,-0.31833 0.171326,-0.005 0.358106,0.0684 0.581877,0.27906 0.108188,0.11864 0.343493,0.11284 0.415968,0.0392 0.195357,-0.20412 0.366366,-0.25028 0.605649,-0.29404 v 2.88562 h -1.588018 c -0.14532,5.5e-4 -0.262983,0.11823 -0.263549,0.26355 -5.3e-4,0.14612 0.117422,0.26504 0.263549,0.26561 h 0.68368 l -0.605649,0.60565 c -0.04975,0.0497 -0.07764,0.11724 -0.07751,0.18759 h -1.328605 c -0.02934,-0.38647 -0.18456,-0.66918 -0.390673,-0.83406 -0.229196,-0.18335 -0.485587,-0.22479 -0.661975,-0.22479 -0.176389,0 -0.431231,0.0414 -0.660426,0.22479 -0.229193,0.18335 -0.398426,0.51119 -0.398426,0.96686 v 0.13281 c -0.145319,5.6e-4 -0.262982,0.11823 -0.263548,0.26355 -5.3e-4,0.14613 0.117422,0.26505 0.263548,0.26562 v 0.49041 c -0.06273,-0.002 -0.124253,-1.4e-4 -0.183451,0.008 -0.321342,0.0428 -0.557588,0.20722 -0.756026,0.33951 -0.198437,0.13229 -0.358031,0.23095 -0.532783,0.25425 -0.174752,0.0233 -0.398706,-0.0122 -0.761712,-0.25425 -0.383521,-0.25568 -0.717116,-0.36099 -1.015958,-0.34933 -0.298841,0.0117 -0.536344,0.13783 -0.728638,0.25993 -0.192291,0.12211 -0.350785,0.23878 -0.501777,0.29869 -0.150993,0.0599 -0.288362,0.0814 -0.519348,0.002 -0.180065,-0.0618 -0.377127,-0.0821 -0.555006,0.0191 -0.177879,0.1012 -0.265615,0.31332 -0.265615,0.5178 v 3.96875 c 0,0.43522 0.358021,0.79348 0.793231,0.79478 l 13.757818,0.0413 c 0.435255,10e-4 0.794784,-0.3559 0.794784,-0.79116 v -5.0276 -0.79272 c 0,-0.31347 -0.258582,-0.57413 -0.572058,-0.57413 h -1.280025 c 1.27e-4,-0.0703 -0.02777,-0.13784 -0.07752,-0.18758 l -0.60565,-0.60565 h 0.154514 c 0.412861,0 0.805654,-0.18057 1.074354,-0.49403 l 0.55862,-0.65164 c 0.0051,-0.005 0.0099,-0.0112 0.01447,-0.017 l 0.670761,-0.78238 c 0.09506,-0.11101 0.0821,-0.27807 -0.02894,-0.3731 -0.128019,-0.10177 -0.298948,-0.0502 -0.373103,0.0294 l -0.60203,0.70125 h -1.314132 c -0.45089,-10e-6 -0.8621,0.2622 -1.050581,0.6718 l -0.177253,0.38654 h -0.360182 v -2.88303 c 0.221464,0.0404 0.426574,0.12739 0.572574,0.25786 0.05796,0.0741 0.147391,0.11137 0.222226,0.11164 0.07416,-1.9e-4 0.144846,-0.0315 0.281736,-0.16893 0.136888,-0.13744 0.327544,-0.22267 0.496047,-0.22743 0.17151,-0.005 0.357743,0.0696 0.581874,0.28112 0.08227,0.07 0.154347,0.11577 0.22633,0.11524 0.146933,5.8e-4 0.266192,-0.11868 0.265618,-0.26561 2.6e-5,-1.59587 -1.292345,-2.89586 -2.900485,-2.89441 -1.608137,0.001 -2.886016,1.26653 -2.919865,2.83194 z m -5.876652,-2.34565 c 0.49943,0 0.898133,0.39871 0.898139,0.89814 -6e-6,0.49942 -0.398709,0.89865 -0.898139,0.89865 -0.499425,0 -0.898649,-0.39923 -0.898652,-0.89865 3e-6,-0.49943 0.399227,-0.89814 0.898652,-0.89814 z m 9.452655,0.12299 c 0.816327,0.23659 1.449517,0.896 1.64796,1.72858 -0.158287,-0.0711 -0.322821,-0.10863 -0.491443,-0.10387 -0.18356,0.005 -0.359656,0.0636 -0.52865,0.1571 -0.07628,-0.72136 -0.304811,-1.27177 -0.539502,-1.65313 -0.02984,-0.0485 -0.05872,-0.0855 -0.08836,-0.12868 z m -1.33377,0.001 c -0.02939,0.0429 -0.05826,0.0796 -0.08785,0.12764 -0.234857,0.38164 -0.463386,0.93257 -0.539501,1.65468 -0.187571,-0.10404 -0.384151,-0.16461 -0.58756,-0.15865 -0.148389,0.004 -0.292513,0.0418 -0.432017,0.10439 0.19825,-0.83173 0.83136,-1.49072 1.646928,-1.72806 z m 0.667144,0.002 c 0.08353,0.0897 0.190297,0.21905 0.303856,0.40359 0.192283,0.31246 0.38577,0.76339 0.458372,1.37253 -0.250484,-0.10812 -0.526431,-0.1592 -0.800471,-0.154 -0.24874,0.005 -0.49667,0.0581 -0.723984,0.1571 0.07231,-0.61069 0.265766,-1.06265 0.458369,-1.37563 0.113559,-0.18454 0.220324,-0.31394 0.303858,-0.40359 z m -11.641666,0.50866 c -0.14532,5.3e-4 -0.262986,0.11823 -0.263552,0.26355 5.29e-4,0.14532 0.118232,0.26298 0.263552,0.26355 h 0.845941 c 0.146127,5.3e-4 0.265047,-0.11742 0.265618,-0.26355 -5.29e-4,-0.14613 -0.119491,-0.26412 -0.265618,-0.26355 z m 4.865335,0 c -0.146127,-5.3e-4 -0.265049,0.11742 -0.265618,0.26355 5.29e-4,0.14613 0.119491,0.26412 0.265618,0.26355 h 0.845426 c 0.145521,-2.6e-4 0.263498,-0.11803 0.264067,-0.26355 -5.29e-4,-0.14552 -0.118546,-0.26327 -0.264067,-0.26355 z m -3.439583,1.42007 c -0.067,0.003 -0.13054,0.0304 -0.177768,0.078 l -0.298689,0.29869 c -0.102613,0.1032 -0.102613,0.2699 0,0.3731 0.103204,0.10262 0.269899,0.10262 0.373103,0 l 0.29869,-0.29875 c 0.102614,-0.1032 0.102614,-0.2699 0,-0.3731 -0.05153,-0.0519 -0.122237,-0.0801 -0.195336,-0.078 z m 2.841686,0 c -0.067,0.003 -0.130538,0.0304 -0.177766,0.078 -0.102613,0.1032 -0.102613,0.2699 0,0.3731 l 0.299207,0.29869 c 0.103203,0.10262 0.269899,0.10262 0.373102,0 0.102613,-0.1032 0.102613,-0.2699 0,-0.3731 l -0.299207,-0.29869 c -0.05153,-0.0519 -0.122237,-0.0801 -0.195336,-0.078 z m -1.411801,0.58756 c -0.146934,-5.8e-4 -0.266189,0.11868 -0.265615,0.26562 v 0.84594 c 5.29e-4,0.14613 0.119491,0.26412 0.265615,0.26355 0.14532,-5.6e-4 0.262985,-0.11823 0.263551,-0.26355 v -0.84594 c 5.29e-4,-0.14613 -0.117424,-0.26505 -0.263551,-0.26562 z m 10.638629,2.0159 h 0.859379 l -0.187587,0.21859 c -0.168375,0.19642 -0.413078,0.31058 -0.671792,0.31058 H 44.0123 l 0.07545,-0.16382 c 0.102647,-0.22308 0.324948,-0.36535 0.570507,-0.36535 z m -2.271697,1.05833 h 0.154514 v 0.79323 h -0.94723 z m 0.683681,0 h 0.685744 l 0.792718,0.79323 h -1.478462 z m -4.497917,0.26407 c 0.08819,0 0.230227,0.0257 0.331761,0.10697 0.08674,0.0694 0.16538,0.18685 0.187587,0.42788 -0.28815,0.0286 -0.519348,0.27368 -0.519348,0.56844 v 0.48421 0.64285 c -0.03927,-0.023 -0.07458,-0.0402 -0.117306,-0.0687 -0.143912,-0.0959 -0.280627,-0.16861 -0.411861,-0.22376 v -0.61391 c 0.146934,5.8e-4 0.26619,-0.11869 0.265615,-0.26562 -5.29e-4,-0.14612 -0.119491,-0.26412 -0.265615,-0.26355 v -0.13281 c 0,-0.33808 0.09742,-0.47377 0.198954,-0.555 0.101534,-0.0812 0.242017,-0.10697 0.330213,-0.10697 z m 0.574125,1.05833 h 7.320483 c 0.02749,0 0.04289,0.0175 0.04289,0.045 v 0.52917 h -7.363373 c -0.02749,0 -0.04496,-0.0175 -0.04496,-0.045 v -0.24185 -0.24236 c 0,-0.0275 0.01746,-0.045 0.04496,-0.045 z m -0.04496,1.09709 c 0.01508,10e-4 0.0296,0.005 0.04496,0.005 h 7.363375 v 4.76354 c 0,0.14871 -0.114821,0.26399 -0.263552,0.26355 l -7.144781,-0.0212 z m -4.816245,0.18604 c 0.163298,-0.006 0.378039,0.0445 0.701249,0.25993 0.430744,0.28716 0.803653,0.38288 1.124998,0.34003 0.321341,-0.0428 0.557069,-0.20774 0.755507,-0.34003 0.198437,-0.13229 0.35855,-0.2325 0.533302,-0.2558 0.03492,-0.005 0.07361,-0.004 0.11317,-0.003 v 0.56741 c -0.146127,5.8e-4 -0.26412,0.11949 -0.263549,0.26561 5.29e-4,0.14532 0.118229,0.26299 0.263549,0.26355 v 0.52969 c -0.146127,5.8e-4 -0.26412,0.11949 -0.263549,0.26561 5.29e-4,0.14532 0.118229,0.26299 0.263549,0.26355 v 0.66198 c 5.29e-4,0.14613 0.119491,0.26412 0.265618,0.26355 0.145521,-2.9e-4 0.263498,-0.11803 0.264067,-0.26355 v -0.66198 c 0.146124,5.9e-4 0.265047,-0.11742 0.265615,-0.26355 5.3e-4,-0.14693 -0.118681,-0.26619 -0.265615,-0.26561 v -0.52969 c 0.146124,5.9e-4 0.265047,-0.11742 0.265615,-0.26355 5.3e-4,-0.14693 -0.118681,-0.26619 -0.265615,-0.26561 v -0.37827 c 0.03973,0.0234 0.07527,0.0407 0.118856,0.0698 0.144873,0.0966 0.279506,0.16391 0.410311,0.21911 v 4.34392 l -6.083866,-0.0181 c -0.149794,-4.5e-4 -0.265618,-0.11789 -0.265618,-0.26768 v -3.96875 c 0,-0.0393 0.0019,-0.0514 0.0031,-0.0579 5.29e-4,0.002 0.03242,-0.008 0.115755,0.0207 0.33778,0.11594 0.644604,0.0863 0.886767,-0.01 0.242162,-0.0961 0.424823,-0.23866 0.590145,-0.34364 0.165322,-0.10498 0.30334,-0.17139 0.466638,-0.17777 z m -0.0217,0.53795 c -0.175496,0.004 -0.33314,0.0436 -0.470773,0.10645 -0.367022,0.16765 -0.60061,0.4052 -0.83974,0.47077 -0.141531,0.0385 -0.224748,0.18476 -0.185521,0.32608 0.03828,0.14096 0.183547,0.22424 0.32453,0.18604 0.419569,-0.11504 0.67867,-0.38936 0.921391,-0.50023 0.242718,-0.11087 0.459255,-0.15134 0.973066,0.1912 0.437639,0.29176 0.816282,0.38562 1.140499,0.33797 0.324218,-0.0477 0.560181,-0.21856 0.759643,-0.3514 0.120264,-0.0813 0.152548,-0.24435 0.07235,-0.36536 -0.08082,-0.12079 -0.243943,-0.15379 -0.365353,-0.0739 -0.203872,0.13577 -0.368054,0.2412 -0.544668,0.26716 -0.176618,0.026 -0.400646,-0.008 -0.769464,-0.25373 -0.381056,-0.25403 -0.723466,-0.34757 -1.015958,-0.34106 z m 0.07493,1.08934 c -0.146328,2.9e-4 -0.264636,0.11929 -0.264065,0.26562 5.29e-4,0.14551 0.118544,0.26326 0.264065,0.26354 0.146127,5.9e-4 0.265049,-0.11742 0.265618,-0.26354 5.29e-4,-0.14694 -0.118684,-0.2662 -0.265618,-0.26562 z m 2.401922,0.25166 c -0.05229,1.6e-4 -0.10336,0.0158 -0.146762,0.045 -0.203872,0.13578 -0.368054,0.24172 -0.544669,0.26768 -0.176617,0.026 -0.400645,-0.01 -0.769464,-0.25579 -0.121816,-0.0813 -0.286506,-0.0482 -0.367418,0.0739 -0.0812,0.12196 -0.04784,0.28668 0.07441,0.36742 0.437639,0.29176 0.816282,0.38562 1.140499,0.33797 0.324218,-0.0477 0.560181,-0.21909 0.759643,-0.35192 0.119946,-0.0813 0.152199,-0.24393 0.07235,-0.36484 -0.04841,-0.0737 -0.130384,-0.1185 -0.218591,-0.11937 z"
         style="color:#000000;font-style:normal;font-variant:normal;font-weight:normal;font-stretch:normal;font-size:medium;line-height:normal;font-family:sans-serif;font-variant-ligatures:normal;font-variant-position:normal;font-variant-caps:normal;font-variant-numeric:normal;font-variant-alternates:normal;font-variant-east-asian:normal;font-feature-settings:normal;font-variation-settings:normal;text-indent:0;text-align:start;text-decoration:none;text-decoration-line:none;text-decoration-style:solid;text-decoration-color:#000000;letter-spacing:normal;word-spacing:normal;text-transform:none;writing-mode:lr-tb;direction:ltr;text-orientation:mixed;dominant-baseline:auto;baseline-shift:baseline;text-anchor:start;white-space:normal;shape-padding:0;shape-margin:0;inline-size:0;clip-rule:nonzero;display:inline;overflow:visible;visibility:visible;opacity:1;isolation:auto;mix-blend-mode:normal;color-interpolation:sRGB;color-interpolation-filters:linearRGB;solid-color:#000000;solid-opacity:1;vector-effect:none;fill:#000000;fill-opacity:1;fill-rule:nonzero;stroke:none;stroke-width:0.529167;stroke-linecap:round;stroke-linejoin:round;stroke-miterlimit:4;stroke-dasharray:none;stroke-dashoffset:0;stroke-opacity:1;color-rendering:auto;image-rendering:auto;shape-rendering:auto;text-rendering:auto;enable-background:accumulate;stop-color:#000000;stop-opacity:1"
         id="path990" />
    </g>
  </g>
</svg>
