<?xml version="1.0" ?><svg xmlns="http://www.w3.org/2000/svg" xmlns:xlink="http://www.w3.org/1999/xlink" version="1.1" viewBox="0 0 510 510" style="enable-background:new 0 0 510 510;" xml:space="preserve"><g id="_x31_7_x2C__massage_x2C__spa_x2C__massages_x2C__body_massage_x2C__treatment_x2C__chiropractic"><g><g><g><path style="fill:#707DD4;" d="M460,249.069v165c0,13.81-11.19,25-25,25s-25-11.19-25-25v-165H460z"/><path style="fill:#707DD4;" d="M100,249.069v165c0,13.81-11.19,25-25,25s-25-11.19-25-25v-165H100z"/></g><path style="fill:#F5DDCD;" d="M380,130.279c0,21.414-17.351,38.79-38.79,38.79l-100.543,10.263L250,96.949l88.86-5.39     C361.099,90.213,380,107.872,380,130.279z"/><path style="fill:#F5DDCD;" d="M120,104.829l11,71.837l-50.09-7.597c-17.07,0-30.91-13.84-30.91-30.91     c0-16.329,12.72-29.87,29.04-30.85L120,104.829z"/><path style="fill:#8A94DC;" d="M467.5,169.069c-23.615,0-400.122,0-425,0c-17.95,0-32.5,14.55-32.5,32.5v25     c0,17.95,14.55,32.5,32.5,32.5c19.535,0,365.514,0,425,0c17.95,0,32.5-14.55,32.5-32.5v-25     C500,183.619,485.45,169.069,467.5,169.069z"/><circle style="fill:#8D8290;" cx="420" cy="129.069" r="40"/><path style="fill:#ADECA3;" d="M250,209.069H120c0-33.656,0-73.646,0-108.45c0-12.16,9.36-22.27,21.48-23.2l83.47-6.42     c13.51-1.04,25.05,9.64,25.05,23.19C250,131.333,250,173.222,250,209.069z"/><g><path d="M467.5,159.07h-7.527c6.292-8.363,10.027-18.753,10.027-30c0-27.57-22.43-50-50-50      c-16.696,0-31.495,8.233-40.581,20.844c-9.555-12-24.619-19.337-41.159-18.333l-79.193,4.8      c-3.723-15.462-18.232-26.614-34.882-25.355l-83.472,6.421c-15.453,1.189-27.894,13.042-30.289,27.943l-31.991,1.939      C56.882,98.636,40,116.572,40,138.162c0,7.635,2.108,14.785,5.765,20.908H42.5c-23.435,0-42.5,19.065-42.5,42.5v25      c0,22.595,17.725,41.121,40,42.42v145.08c0,19.299,15.701,35,35,35s35-15.701,35-35v-145h290v145c0,19.299,15.701,35,35,35      s35-15.701,35-35v-145.08c22.275-1.299,40-19.826,40-42.42v-25C510,178.136,490.935,159.07,467.5,159.07z M420,99.07      c16.542,0,30,13.458,30,30s-13.458,30-30,30s-30-13.458-30-30S403.458,99.07,420,99.07z M339.469,101.545      c16.692-1.01,30.531,12.26,30.531,28.736c0,15.874-12.915,28.789-28.789,28.789H260v-52.709L339.469,101.545z M130,100.614      c0-6.888,5.38-12.697,12.247-13.226l83.471-6.421C233.475,80.371,240,86.505,240,94.193V199.07H130V100.614z M60,138.162      c0-11.035,8.628-20.202,19.643-20.87l30.357-1.84v43.618H80.908C69.379,159.07,60,149.691,60,138.162z M90,414.07      c0,8.271-6.729,15-15,15s-15-6.729-15-15v-145h30V414.07z M450,414.07c0,8.271-6.729,15-15,15s-15-6.729-15-15v-145h30V414.07z       M490,226.57c0,12.406-10.094,22.5-22.5,22.5c-84.852,0-288.384,0-425,0c-12.406,0-22.5-10.094-22.5-22.5v-25      c0-12.406,10.094-22.5,22.5-22.5c13.569,0,52.819,0,67.5,0v30c0,5.522,4.478,10,10,10h130c5.522,0,10-4.478,10-10v-30      c9.882,0,203.555,0,207.5,0c12.406,0,22.5,10.094,22.5,22.5V226.57z"/></g></g></g></g><g id="Layer_1"/></svg>