<?xml version="1.0" ?><svg id="Capa_1" style="enable-background:new 0 0 512 512;" version="1.1" viewBox="0 0 512 512" xml:space="preserve" xmlns="http://www.w3.org/2000/svg" xmlns:xlink="http://www.w3.org/1999/xlink"><g><path d="M216.002,50.001H296v-20c0-11-8.996-20.001-20-20.001h-39.998c-11.002,0-20,9.001-20,20.001V50.001z   " style="fill:#FFDAAE;"/><path d="M296,50.001h-79.998H196c-35.34,0-67.24,15.482-89.25,40h149.078h149.424   c-22.014-24.518-53.914-40-89.254-40H296z" style="fill:#FF5A5A;"/><g><path d="M363.895,306.024c-13.24,0-23.975,10.734-23.975,23.975c0,13.244,10.734,23.979,23.975,23.979    c13.24,0,23.978-10.734,23.978-23.979C387.873,316.759,377.135,306.024,363.895,306.024z" style="fill:#FF9D21;"/><path d="M172.08,329.999c0-13.24-10.734-23.975-23.979-23.975c-13.24,0-23.975,10.734-23.975,23.975    c0,13.244,10.734,23.979,23.975,23.979C161.346,353.978,172.08,343.243,172.08,329.999z" style="fill:#FF9D21;"/></g><g><path d="M76,249.998h179.828V122.569V90.001H106.75C87.654,111.27,76,139.34,76,170V249.998z" style="fill:#96C8EB;"/><path d="M255.828,122.569v127.429h40.041h140.133V170c0-30.66-11.654-58.73-30.75-79.999H255.828V122.569z" style="fill:#96C8EB;"/></g><path d="M295.869,249.998h-40.041H76v120.003C76,392.003,94,410,116,410h50h180h50   c22,0,40.002-17.997,40.002-39.999V249.998H295.869L295.869,249.998z M148.102,306.024c13.244,0,23.979,10.734,23.979,23.975   c0,13.244-10.734,23.979-23.979,23.979c-13.24,0-23.975-10.734-23.975-23.979C124.127,316.759,134.861,306.024,148.102,306.024   L148.102,306.024z M339.92,329.999c0-13.24,10.734-23.975,23.975-23.975c13.24,0,23.978,10.734,23.978,23.975   c0,13.244-10.738,23.979-23.978,23.979C350.654,353.978,339.92,343.243,339.92,329.999z" style="fill:#FF5A5A;"/><g><polygon points="166,410 116,410 36,502 96,502   " style="fill:#986E62;"/><polygon points="346,410 415.998,502 476,502 396,410   " style="fill:#986E62;"/></g></g><g><path d="M148.104,363.978c18.736,0,33.979-15.243,33.979-33.979c0-18.733-15.242-33.975-33.979-33.975   c-18.734,0-33.977,15.241-33.977,33.975C114.127,348.734,129.369,363.978,148.104,363.978z M148.104,316.024   c7.709,0,13.979,6.269,13.979,13.975c0,7.708-6.27,13.979-13.979,13.979c-7.707,0-13.977-6.271-13.977-13.979   C134.127,322.293,140.396,316.024,148.104,316.024z" style="fill:#000001;"/><path d="M363.895,363.978c18.736,0,33.978-15.243,33.978-33.979c0-18.733-15.242-33.975-33.978-33.975   c-18.732,0-33.975,15.241-33.975,33.975C329.92,348.734,345.162,363.978,363.895,363.978z M363.895,316.024   c7.709,0,13.978,6.269,13.978,13.975c0,7.708-6.269,13.979-13.978,13.979c-7.705,0-13.975-6.271-13.975-13.979   C349.92,322.293,356.189,316.024,363.895,316.024z" style="fill:#000001;"/><path d="M483.547,495.439l-68.787-79.104c18.301-7.435,31.242-25.397,31.242-46.334V170   c0-71.682-58.318-129.999-130.004-129.999H306v-10C306,13.458,292.543,0,276,0h-39.998c-16.543,0-30,13.458-30,30.001v10H196   c-37.795,0-71.867,16.217-95.643,42.051c-1.004,0.766-1.857,1.715-2.512,2.801C78.018,107.679,66,137.462,66,170v200.001   c0,20.936,12.941,38.897,31.24,46.334l-68.785,79.104c-2.572,2.956-3.18,7.142-1.555,10.708C28.525,509.712,32.082,512,36,512h60   c3.123,0,6.068-1.459,7.959-3.945L170.955,420h170.088l66.998,88.055c1.891,2.486,4.834,3.945,7.957,3.945H476   c3.918,0,7.477-2.288,9.1-5.853C486.725,502.581,486.117,498.395,483.547,495.439z M426.002,239.998H320.014l19.016-19.015   c3.904-3.905,3.904-10.236,0-14.143c-3.904-3.903-10.234-3.904-14.143,0l-33.16,33.157h-25.898V122.574c0-0.003,0-0.007,0-0.01   v-22.563h134.965c15.74,19.032,25.209,43.431,25.209,69.999L426.002,239.998L426.002,239.998z M226.002,30.001   c0-5.515,4.486-10.001,10-10.001H276c5.514,0,10,4.486,10,10.001v10h-59.998V30.001z M216.002,60.001H296h19.998   c23.492,0,45.285,7.406,63.174,20H132.828c17.889-12.594,39.682-20,63.172-20H216.002z M111.209,100.001h134.619v18.426   l-33.158,33.159c-3.906,3.905-3.906,10.237,0,14.143c1.953,1.952,4.512,2.929,7.07,2.929c2.561,0,5.119-0.977,7.072-2.929   l19.016-19.017v93.286H86V170C86,143.432,95.469,119.033,111.209,100.001z M86,370.001V259.998h340.002v110.003   C426.002,386.542,412.543,400,396,400H116C99.457,400,86,386.542,86,370.001z M91.043,492H57.947l62.607-72h25.271L91.043,492z    M420.955,492l-54.781-72h25.27l62.609,72H420.955z" style="fill:#000001;"/><path d="M199.258,189.139c2.578,0,5.156-0.991,7.111-2.97l0.168-0.169c3.881-3.929,3.846-10.26-0.082-14.143   c-3.93-3.883-10.26-3.846-14.143,0.082l-0.168,0.169c-3.881,3.929-3.846,10.26,0.082,14.143   C194.176,188.178,196.717,189.139,199.258,189.139z" style="fill:#000001;"/><path d="M359.512,186.359c-3.906-3.904-10.236-3.904-14.143,0l-0.166,0.167   c-3.906,3.905-3.906,10.237,0,14.143c1.953,1.952,4.512,2.929,7.07,2.929c2.56,0,5.119-0.977,7.072-2.929l0.166-0.167   C363.418,196.597,363.418,190.265,359.512,186.359z" style="fill:#000001;"/><path d="M220.035,320h71.928c5.523,0,10-4.478,10-10s-4.477-10-10-10h-71.928c-5.521,0-10,4.478-10,10   S214.514,320,220.035,320z" style="fill:#000001;"/><path d="M220.033,359.998h0.236c5.523,0,10-4.477,10-10c0-5.522-4.477-10-10-10h-0.236   c-5.521,0-10,4.478-10,10C210.033,355.521,214.512,359.998,220.033,359.998z" style="fill:#000001;"/><path d="M291.967,340.003H249c-5.521,0-10,4.478-10,10s4.479,10,10,10h42.967c5.523,0,10-4.478,10-10   C301.967,344.48,297.49,340.003,291.967,340.003z" style="fill:#000001;"/></g><g/><g/><g/><g/><g/><g/><g/><g/><g/><g/><g/><g/><g/><g/><g/></svg>